<svg width="55" height="51" viewBox="0 0 55 51" fill="none" xmlns="http://www.w3.org/2000/svg">
<path d="M25.3132 12.2461H10.3125C9.71921 12.2461 9.23828 12.727 9.23828 13.3203C9.23828 13.9136 9.71921 14.3945 10.3125 14.3945H25.3132C25.9065 14.3945 26.3874 13.9136 26.3874 13.3203C26.3874 12.727 25.9065 12.2461 25.3132 12.2461Z" fill="white"/>
<path d="M45.447 12.5611C45.2472 12.3613 44.97 12.2463 44.6875 12.2463C44.405 12.2463 44.1278 12.3613 43.928 12.5611C43.7282 12.7609 43.6133 13.038 43.6133 13.3206C43.6133 13.6031 43.7282 13.8802 43.928 14.08C44.1278 14.2798 44.405 14.3948 44.6875 14.3948C44.97 14.3948 45.2472 14.2798 45.447 14.08C45.6468 13.8802 45.7617 13.6031 45.7617 13.3206C45.7617 13.038 45.6468 12.7609 45.447 12.5611Z" fill="white"/>
<path d="M40.7129 12.2461H30.4916C29.8983 12.2461 29.4174 12.727 29.4174 13.3203C29.4174 13.9136 29.8983 14.3945 30.4916 14.3945H40.7129C41.3062 14.3945 41.7871 13.9136 41.7871 13.3203C41.7871 12.727 41.3062 12.2461 40.7129 12.2461Z" fill="white"/>
<path d="M34.867 6.23071H10.3125C9.71921 6.23071 9.23828 6.71164 9.23828 7.30493C9.23828 7.89822 9.71921 8.37915 10.3125 8.37915H34.867C35.4603 8.37915 35.9412 7.89822 35.9412 7.30493C35.9412 6.71164 35.4603 6.23071 34.867 6.23071Z" fill="white"/>
<path d="M44.6875 6.23071H40.4036C39.8103 6.23071 39.3294 6.71164 39.3294 7.30493C39.3294 7.89822 39.8103 8.37915 40.4036 8.37915H44.6875C45.2808 8.37915 45.7617 7.89822 45.7617 7.30493C45.7617 6.71164 45.2808 6.23071 44.6875 6.23071Z" fill="white"/>
<path d="M44.6875 24.276H40.4036C39.8103 24.276 39.3294 24.7569 39.3294 25.3502C39.3294 25.9435 39.8103 26.4244 40.4036 26.4244H44.6875C45.2808 26.4244 45.7617 25.9435 45.7617 25.3502C45.7617 24.7569 45.2808 24.276 44.6875 24.276Z" fill="white"/>
<path d="M36.1481 24.2775H10.3125C9.71921 24.2775 9.23828 24.7584 9.23828 25.3517C9.23828 25.945 9.71921 26.4259 10.3125 26.4259H36.1481C36.7414 26.4259 37.2223 25.945 37.2223 25.3517C37.2223 24.7584 36.7414 24.2775 36.1481 24.2775Z" fill="white"/>
<path d="M19.092 18.2615H10.3125C9.71921 18.2615 9.23828 18.7424 9.23828 19.3357C9.23828 19.929 9.71921 20.4099 10.3125 20.4099H19.092C19.6853 20.4099 20.1662 19.929 20.1662 19.3357C20.1662 18.7424 19.6853 18.2615 19.092 18.2615Z" fill="white"/>
<path d="M44.6875 18.2615H27.0172C26.4239 18.2615 25.943 18.7424 25.943 19.3357C25.943 19.929 26.4239 20.4099 27.0172 20.4099H44.6875C45.2808 20.4099 45.7617 19.929 45.7617 19.3357C45.7617 18.7424 45.2808 18.2615 44.6875 18.2615Z" fill="white"/>
<path d="M23.9583 18.5756C23.7585 18.3758 23.4813 18.262 23.1988 18.262C22.9163 18.262 22.6391 18.3758 22.4393 18.5756C22.2395 18.7765 22.1246 19.0526 22.1246 19.3362C22.1246 19.6187 22.2395 19.8959 22.4393 20.0957C22.6391 20.2955 22.9163 20.4104 23.1988 20.4104C23.4813 20.4104 23.7585 20.2955 23.9583 20.0957C24.1581 19.8959 24.273 19.6187 24.273 19.3362C24.273 19.0526 24.1581 18.7765 23.9583 18.5756Z" fill="white"/>
<path d="M27.6017 33.7305C27.0085 33.7305 26.5275 34.2114 26.5275 34.8047C26.5275 35.398 27.0085 35.8789 27.6017 35.8789H27.6119C28.2052 35.8789 28.681 35.398 28.681 34.8047C28.681 34.2114 28.195 33.7305 27.6017 33.7305Z" fill="white"/>
<path d="M50.4883 0H4.51172C2.02394 0 0 2.02394 0 4.51172V34.8047C0 37.7663 2.40947 40.1758 5.37109 40.1758H21.6992V44.2582H20.1953C17.7075 44.2582 15.6836 46.2822 15.6836 48.77V49.6293C15.6836 50.2226 16.1645 50.7036 16.7578 50.7036H38.2422C38.8355 50.7036 39.3164 50.2226 39.3164 49.6293V48.77C39.3164 46.2822 37.2925 44.2582 34.8047 44.2582H33.3008V40.1758H49.6289C52.5905 40.1758 55 37.7663 55 34.8047V4.51172C55 2.02394 52.9761 0 50.4883 0ZM34.8047 46.4067C36.0354 46.4067 37.0494 47.3522 37.1583 48.5551H17.8417C17.9505 47.3522 18.9646 46.4067 20.1953 46.4067H22.7734H32.2266H34.8047ZM23.8477 44.2582V40.1758H31.1523V44.2582H23.8477ZM52.8516 34.8047C52.8516 36.5817 51.4059 38.0273 49.6289 38.0273H32.2266H22.7734H5.37109C3.59412 38.0273 2.14844 36.5817 2.14844 34.8047V31.5825H52.8516V34.8047ZM52.8516 29.434H2.14844V4.51172C2.14844 3.20858 3.20858 2.14844 4.51172 2.14844H50.4883C51.7914 2.14844 52.8516 3.20858 52.8516 4.51172V29.434Z" fill="white"/>
</svg>
