<svg width="19" height="18" viewBox="0 0 19 18" fill="none" xmlns="http://www.w3.org/2000/svg">
<path d="M9.35064 0H9.34614C4.38376 0 0.348389 4.0365 0.348389 9C0.348389 10.9688 0.982889 12.7935 2.06176 14.2751L0.940139 17.6186L4.39951 16.5128C5.82264 17.4555 7.52026 18 9.35064 18C14.313 18 18.3484 13.9624 18.3484 9C18.3484 4.03763 14.313 0 9.35064 0Z" fill="#4CAF50"/>
<path d="M14.5875 12.7091C14.3704 13.3222 13.5086 13.8307 12.8213 13.9792C12.351 14.0794 11.7368 14.1592 9.66901 13.302C7.02413 12.2062 5.32088 9.51861 5.18813 9.34424C5.06101 9.16986 4.11938 7.92111 4.11938 6.62961C4.11938 5.33811 4.77526 4.70924 5.03963 4.43924C5.25676 4.21761 5.61563 4.11636 5.95988 4.11636C6.07126 4.11636 6.17138 4.12199 6.26138 4.12649C6.52576 4.13774 6.65851 4.15349 6.83288 4.57086C7.05001 5.09399 7.57876 6.38549 7.64176 6.51824C7.70588 6.65099 7.77001 6.83099 7.68001 7.00536C7.59563 7.18536 7.52138 7.26524 7.38863 7.41824C7.25588 7.57124 7.12988 7.68824 6.99713 7.85249C6.87563 7.99536 6.73838 8.14836 6.89138 8.41274C7.04438 8.67149 7.57313 9.53436 8.35163 10.2274C9.35626 11.1217 10.1708 11.4075 10.4621 11.529C10.6793 11.619 10.938 11.5976 11.0966 11.4289C11.298 11.2117 11.5466 10.8517 11.7998 10.4974C11.9798 10.2431 12.207 10.2116 12.4455 10.3016C12.6885 10.386 13.9744 11.0216 14.2388 11.1532C14.5031 11.286 14.6775 11.349 14.7416 11.4604C14.8046 11.5717 14.8046 12.0949 14.5875 12.7091Z" fill="#FAFAFA"/>
</svg>
