<svg width="45" height="57" viewBox="0 0 45 57" fill="none" xmlns="http://www.w3.org/2000/svg">
<path d="M40.3125 0H4.6875C2.1 0.00304688 0.00304688 2.1 0 4.6875V51.5625C0.00304688 54.15 2.1 56.247 4.6875 56.25H40.3125C42.9 56.247 44.997 54.15 45 51.5625V4.6875C44.997 2.1 42.9 0.00304688 40.3125 0ZM13.125 1.875H31.875V3.75H13.125V1.875ZM39.375 5.625V15H5.625V5.625H39.375ZM43.125 51.5625C43.125 53.1158 41.8658 54.375 40.3125 54.375H4.6875C3.13418 54.375 1.875 53.1158 1.875 51.5625V4.6875C1.875 3.13418 3.13418 1.875 4.6875 1.875H11.25V3.75H4.6875C4.16977 3.75 3.75 4.16977 3.75 4.6875V15.9375C3.75 16.4552 4.16977 16.875 4.6875 16.875H40.3125C40.8302 16.875 41.25 16.4552 41.25 15.9375V4.6875C41.25 4.16977 40.8302 3.75 40.3125 3.75H33.75V1.875H40.3125C41.8658 1.875 43.125 3.13418 43.125 4.6875V51.5625Z" fill="white"/>
<path d="M22.5 18.75C19.9112 18.75 17.8125 20.8487 17.8125 23.4375C17.8155 26.025 19.9125 28.122 22.5 28.125C25.0888 28.125 27.1875 26.0263 27.1875 23.4375C27.1875 20.8487 25.0888 18.75 22.5 18.75ZM22.5 26.25C20.9467 26.25 19.6875 24.9908 19.6875 23.4375C19.6875 21.8842 20.9467 20.625 22.5 20.625C24.0533 20.625 25.3125 21.8842 25.3125 23.4375C25.3125 24.9908 24.0533 26.25 22.5 26.25Z" fill="white"/>
<path d="M34.6875 18.75C32.0987 18.75 30 20.8487 30 23.4375C30.003 26.025 32.1 28.122 34.6875 28.125C37.2763 28.125 39.375 26.0263 39.375 23.4375C39.375 20.8487 37.2763 18.75 34.6875 18.75ZM34.6875 26.25C33.1342 26.25 31.875 24.9908 31.875 23.4375C31.875 21.8842 33.1342 20.625 34.6875 20.625C36.2408 20.625 37.5 21.8842 37.5 23.4375C37.5 24.9908 36.2408 26.25 34.6875 26.25Z" fill="white"/>
<path d="M10.3125 18.75C7.72371 18.75 5.625 20.8487 5.625 23.4375C5.62805 26.025 7.725 28.122 10.3125 28.125C12.9013 28.125 15 26.0263 15 23.4375C15 20.8487 12.9013 18.75 10.3125 18.75ZM10.3125 26.25C8.75918 26.25 7.5 24.9908 7.5 23.4375C7.5 21.8842 8.75918 20.625 10.3125 20.625C11.8658 20.625 13.125 21.8842 13.125 23.4375C13.125 24.9908 11.8658 26.25 10.3125 26.25Z" fill="white"/>
<path d="M22.5 30C19.9112 30 17.8125 32.0987 17.8125 34.6875C17.8155 37.275 19.9125 39.372 22.5 39.375C25.0888 39.375 27.1875 37.2763 27.1875 34.6875C27.1875 32.0987 25.0888 30 22.5 30ZM22.5 37.5C20.9467 37.5 19.6875 36.2408 19.6875 34.6875C19.6875 33.1342 20.9467 31.875 22.5 31.875C24.0533 31.875 25.3125 33.1342 25.3125 34.6875C25.3125 36.2408 24.0533 37.5 22.5 37.5Z" fill="white"/>
<path d="M34.6875 30C32.0987 30 30 32.0987 30 34.6875C30.003 37.275 32.1 39.372 34.6875 39.375C37.2763 39.375 39.375 37.2763 39.375 34.6875C39.375 32.0987 37.2763 30 34.6875 30ZM34.6875 37.5C33.1342 37.5 31.875 36.2408 31.875 34.6875C31.875 33.1342 33.1342 31.875 34.6875 31.875C36.2408 31.875 37.5 33.1342 37.5 34.6875C37.5 36.2408 36.2408 37.5 34.6875 37.5Z" fill="white"/>
<path d="M10.3125 30C7.72371 30 5.625 32.0987 5.625 34.6875C5.62805 37.275 7.725 39.372 10.3125 39.375C12.9013 39.375 15 37.2763 15 34.6875C15 32.0987 12.9013 30 10.3125 30ZM10.3125 37.5C8.75918 37.5 7.5 36.2408 7.5 34.6875C7.5 33.1342 8.75918 31.875 10.3125 31.875C11.8658 31.875 13.125 33.1342 13.125 34.6875C13.125 36.2408 11.8658 37.5 10.3125 37.5Z" fill="white"/>
<path d="M22.5 41.25C19.9112 41.25 17.8125 43.3487 17.8125 45.9375C17.8155 48.525 19.9125 50.622 22.5 50.625C25.0888 50.625 27.1875 48.5263 27.1875 45.9375C27.1875 43.3487 25.0888 41.25 22.5 41.25ZM22.5 48.75C20.9467 48.75 19.6875 47.4908 19.6875 45.9375C19.6875 44.3842 20.9467 43.125 22.5 43.125C24.0533 43.125 25.3125 44.3842 25.3125 45.9375C25.3125 47.4908 24.0533 48.75 22.5 48.75Z" fill="white"/>
<path d="M10.3125 41.25C7.72371 41.25 5.625 43.3487 5.625 45.9375C5.62805 48.525 7.725 50.622 10.3125 50.625C12.9013 50.625 15 48.5263 15 45.9375C15 43.3487 12.9013 41.25 10.3125 41.25ZM10.3125 48.75C8.75918 48.75 7.5 47.4908 7.5 45.9375C7.5 44.3842 8.75918 43.125 10.3125 43.125C11.8658 43.125 13.125 44.3842 13.125 45.9375C13.125 47.4908 11.8658 48.75 10.3125 48.75Z" fill="white"/>
<path d="M38.4375 41.25H30.9375C30.4198 41.25 30 41.6698 30 42.1875V51.5625C30 52.0802 30.4198 52.5 30.9375 52.5H38.4375C38.9552 52.5 39.375 52.0802 39.375 51.5625V42.1875C39.375 41.6698 38.9552 41.25 38.4375 41.25ZM37.5 50.625H31.875V43.125H37.5V50.625Z" fill="white"/>
<path d="M33.75 11.25H31.875V13.125H33.75V11.25Z" fill="white"/>
<path d="M37.5 11.25H35.625V13.125H37.5V11.25Z" fill="white"/>
<path d="M11.25 9.375V7.5H9.375V9.375H7.5V11.25H9.375V13.125H11.25V11.25H13.125V9.375H11.25Z" fill="white"/>
<path d="M35.625 47.8125H34.6875C34.1698 47.8125 33.75 48.2323 33.75 48.75C33.75 49.2677 34.1698 49.6875 34.6875 49.6875H35.625C36.1427 49.6875 36.5625 49.2677 36.5625 48.75C36.5625 48.2323 36.1427 47.8125 35.625 47.8125Z" fill="white"/>
</svg>
