<svg width="17" height="18" viewBox="0 0 17 18" fill="none" xmlns="http://www.w3.org/2000/svg">
<path d="M14.3194 7.63387C14.3398 5.23707 12.2985 3.03986 9.76891 2.73602C9.71861 2.73004 9.66379 2.72098 9.60579 2.71135C9.48054 2.6906 9.35105 2.66928 9.2204 2.66928C8.70197 2.66928 8.56338 3.03345 8.52689 3.25067C8.49139 3.46184 8.52526 3.63918 8.62729 3.778C8.79899 4.01145 9.10107 4.05289 9.34371 4.08612C9.41484 4.09595 9.48194 4.10508 9.53812 4.1177C11.8108 4.62554 12.5761 5.42394 12.9501 7.67733C12.9592 7.73238 12.9633 7.80025 12.9677 7.8722C12.984 8.14158 13.018 8.70198 13.6205 8.70198H13.6206C13.6708 8.70198 13.7247 8.69766 13.7808 8.6891C14.3418 8.60383 14.3242 8.09157 14.3158 7.84544C14.3134 7.77611 14.3112 7.71054 14.317 7.66694C14.3186 7.65595 14.3194 7.64489 14.3194 7.63387Z" fill="#7F40BD"/>
<path d="M9.07324 1.85627C9.14054 1.86112 9.20429 1.86577 9.25735 1.8739C12.9894 2.44785 14.7057 4.21605 15.1813 7.97726C15.1894 8.04121 15.1906 8.11917 15.192 8.20174C15.1967 8.49559 15.2065 9.10693 15.863 9.11958L15.8834 9.11977C16.0893 9.11977 16.2531 9.05769 16.3702 8.9351C16.5746 8.72134 16.5603 8.40378 16.5488 8.14855C16.546 8.08593 16.5433 8.02696 16.544 7.97533C16.5914 4.12859 13.2617 0.640377 9.41839 0.510686C9.40245 0.510155 9.38724 0.511018 9.37187 0.513176C9.36433 0.514272 9.35032 0.515666 9.32635 0.515666C9.28803 0.515666 9.24088 0.512346 9.19088 0.508959C9.13042 0.504809 9.06188 0.500061 8.99242 0.500061C8.38036 0.500061 8.26402 0.935088 8.24914 1.1944C8.21481 1.79375 8.7946 1.83592 9.07324 1.85627Z" fill="#7F40BD"/>
<path d="M15.0012 12.8384C14.9219 12.7778 14.8398 12.7151 14.763 12.6532C14.3556 12.3253 13.9221 12.023 13.5028 11.7307C13.4158 11.6701 13.3288 11.6094 13.2421 11.5486C12.7051 11.1714 12.2223 10.9881 11.7661 10.9881C11.1517 10.9881 10.6161 11.3275 10.174 11.9969C9.97813 12.2937 9.74049 12.438 9.44764 12.438C9.27449 12.438 9.07769 12.3886 8.86287 12.291C7.12944 11.505 5.89166 10.2998 5.18387 8.70889C4.84171 7.93997 4.95264 7.43738 5.55482 7.02832C5.89677 6.79623 6.53328 6.36416 6.48819 5.53677C6.43712 4.59719 4.36399 1.77005 3.49048 1.44897C3.12067 1.31297 2.73209 1.31171 2.33349 1.44582C1.32929 1.7834 0.608688 2.37624 0.249364 3.16013C-0.0978736 3.91759 -0.0822018 4.80697 0.294719 5.73214C1.38431 8.40704 2.9162 10.7392 4.84802 12.6637C6.73894 14.5477 9.06302 16.0909 11.7557 17.2503C11.9984 17.3547 12.2529 17.4117 12.4388 17.4532C12.5022 17.4675 12.5568 17.4796 12.5967 17.4906C12.6186 17.4965 12.6412 17.4998 12.6639 17.5L12.6852 17.5001C12.6852 17.5001 12.6852 17.5001 12.6853 17.5001C13.9517 17.5001 15.4724 16.3428 15.9394 15.0234C16.3486 13.8682 15.6015 13.2972 15.0012 12.8384Z" fill="#7F40BD"/>
<path d="M9.63335 4.91181C9.41654 4.91729 8.96527 4.92848 8.80696 5.38807C8.73288 5.60283 8.74175 5.7893 8.83336 5.9423C8.96776 6.16678 9.22532 6.23558 9.45957 6.27333C10.3091 6.40967 10.7454 6.87942 10.8326 7.7516C10.8732 8.15827 11.147 8.44226 11.4987 8.44226H11.4987C11.5247 8.44226 11.5513 8.44073 11.5777 8.43751C12.0006 8.38721 12.2056 8.07649 12.1871 7.51413C12.1939 6.9272 11.8867 6.26088 11.3643 5.73013C10.84 5.19775 10.2081 4.89793 9.63335 4.91181Z" fill="#7F40BD"/>
</svg>
