<svg width="56" height="56" viewBox="0 0 56 56" fill="none" xmlns="http://www.w3.org/2000/svg">
<path d="M34.5625 33.4688C34.5625 29.8502 31.6186 26.9062 28 26.9062C24.3814 26.9062 21.4375 29.8502 21.4375 33.4688C21.4375 37.0873 24.3814 40.0312 28 40.0312C31.6186 40.0312 34.5625 37.0873 34.5625 33.4688ZM28 37.8438C25.5876 37.8438 23.625 35.8811 23.625 33.4688C23.625 31.0564 25.5876 29.0938 28 29.0938C30.4124 29.0938 32.375 31.0564 32.375 33.4688C32.375 35.8811 30.4124 37.8438 28 37.8438Z" fill="white"/>
<path d="M16.625 33.4688C16.625 29.8502 13.6811 26.9062 10.0625 26.9062C6.44394 26.9062 3.5 29.8502 3.5 33.4688C3.5 37.0873 6.44394 40.0312 10.0625 40.0312C13.6811 40.0312 16.625 37.0873 16.625 33.4688ZM10.0625 37.8438C7.65013 37.8438 5.6875 35.8811 5.6875 33.4688C5.6875 31.0564 7.65013 29.0938 10.0625 29.0938C12.4749 29.0938 14.4375 31.0564 14.4375 33.4688C14.4375 35.8811 12.4749 37.8438 10.0625 37.8438Z" fill="white"/>
<path d="M52.5 33.4688C52.5 29.8502 49.5561 26.9062 45.9375 26.9062C42.3189 26.9062 39.375 29.8502 39.375 33.4688C39.375 37.0873 42.3189 40.0312 45.9375 40.0312C49.5561 40.0312 52.5 37.0873 52.5 33.4688ZM45.9375 37.8438C43.5251 37.8438 41.5625 35.8811 41.5625 33.4688C41.5625 31.0564 43.5251 29.0938 45.9375 29.0938C48.3499 29.0938 50.3125 31.0564 50.3125 33.4688C50.3125 35.8811 48.3499 37.8438 45.9375 37.8438Z" fill="white"/>
<path d="M45.9375 40.0312C42.0116 40.0312 38.6178 42.303 36.9688 45.442C35.324 42.3111 31.9386 40.0312 28 40.0312C24.0741 40.0312 20.6803 42.303 19.0312 45.442C17.3865 42.3111 14.0011 40.0312 10.0625 40.0312C4.60972 40.0312 0 44.4428 0 49.875V54.9062C0 55.5102 0.489781 56 1.09375 56H54.9062C55.5102 56 56 55.5102 56 54.9062V49.875C56 44.4432 51.3906 40.0312 45.9375 40.0312ZM28 42.2188C32.2687 42.2188 35.875 45.7249 35.875 49.875V53.8125H20.125V49.875C20.125 45.7249 23.7313 42.2188 28 42.2188ZM2.1875 49.875C2.1875 45.7249 5.79381 42.2188 10.0625 42.2188C14.3312 42.2188 17.9375 45.7249 17.9375 49.875V53.8125H2.1875V49.875ZM53.8125 53.8125H38.0625V49.875C38.0625 45.7249 41.6688 42.2188 45.9375 42.2188C50.2062 42.2188 53.8125 45.7249 53.8125 49.875V53.8125Z" fill="white"/>
<path d="M28 6.5625C26.1907 6.5625 24.7188 8.03447 24.7188 9.84375C24.7188 11.653 26.1907 13.125 28 13.125C29.8093 13.125 31.2812 11.653 31.2812 9.84375C31.2812 8.03447 29.8093 6.5625 28 6.5625ZM28 10.9375C27.3969 10.9375 26.9062 10.4468 26.9062 9.84375C26.9062 9.24066 27.3969 8.75 28 8.75C28.6031 8.75 29.0938 9.24066 29.0938 9.84375C29.0938 10.4468 28.6031 10.9375 28 10.9375Z" fill="white"/>
<path d="M15.9688 9.84375C15.9688 11.653 17.4407 13.125 19.25 13.125C21.0593 13.125 22.5312 11.653 22.5312 9.84375C22.5312 8.03447 21.0593 6.5625 19.25 6.5625C17.4407 6.5625 15.9688 8.03447 15.9688 9.84375ZM20.3438 9.84375C20.3438 10.4468 19.8531 10.9375 19.25 10.9375C18.6469 10.9375 18.1562 10.4468 18.1562 9.84375C18.1562 9.24066 18.6469 8.75 19.25 8.75C19.8531 8.75 20.3438 9.24066 20.3438 9.84375Z" fill="white"/>
<path d="M40.0312 9.84375C40.0312 8.03447 38.5593 6.5625 36.75 6.5625C34.9407 6.5625 33.4688 8.03447 33.4688 9.84375C33.4688 11.653 34.9407 13.125 36.75 13.125C38.5593 13.125 40.0312 11.653 40.0312 9.84375ZM35.6562 9.84375C35.6562 9.24066 36.1469 8.75 36.75 8.75C37.3531 8.75 37.8438 9.24066 37.8438 9.84375C37.8438 10.4468 37.3531 10.9375 36.75 10.9375C36.1469 10.9375 35.6562 10.4468 35.6562 9.84375Z" fill="white"/>
<path d="M28 2.1875C28.6041 2.1875 29.0938 1.69781 29.0938 1.09375C29.0938 0.489689 28.6041 0 28 0C27.3959 0 26.9062 0.489689 26.9062 1.09375C26.9062 1.69781 27.3959 2.1875 28 2.1875Z" fill="white"/>
<path d="M29.1844 18.1577L28 20.8819L26.8156 18.1577C26.6419 17.7582 26.2479 17.5 25.8125 17.5H14.875C10.6532 17.5 7.21875 14.0655 7.21875 9.84375C7.21875 5.62198 10.6532 2.1875 14.875 2.1875H23.0781C23.6821 2.1875 24.1719 1.69772 24.1719 1.09375C24.1719 0.489781 23.6821 0 23.0781 0H14.875C9.44716 0 5.03125 4.41591 5.03125 9.84375C5.03125 15.2716 9.44716 19.6875 14.875 19.6875H25.0953L26.9969 24.0611C27.1706 24.4604 27.5645 24.7188 28 24.7188C28.4355 24.7188 28.8294 24.4605 29.0031 24.0611L30.9047 19.6875H41.125C46.5528 19.6875 50.9688 15.2716 50.9688 9.84375C50.9688 4.41591 46.5528 0 41.125 0H32.9219C32.3179 0 31.8281 0.489781 31.8281 1.09375C31.8281 1.69772 32.3179 2.1875 32.9219 2.1875H41.125C45.3468 2.1875 48.7812 5.62198 48.7812 9.84375C48.7812 14.0655 45.3468 17.5 41.125 17.5H30.1875C29.7521 17.5 29.3581 17.7582 29.1844 18.1577Z" fill="white"/>
</svg>
