<svg width="21" height="17" viewBox="0 0 21 17" fill="none" xmlns="http://www.w3.org/2000/svg">
<path d="M0.241796 8.86585C0.0805987 8.70466 0 8.46286 0 8.30166C0 8.14047 0.0805987 7.89867 0.241796 7.73747L1.37018 6.60909C1.69257 6.2867 2.17616 6.2867 2.49856 6.60909L2.57916 6.68969L7.01208 11.445C7.17328 11.6062 7.41508 11.6062 7.57628 11.445L18.3765 0.241796H18.4571C18.7795 -0.0805987 19.2631 -0.0805987 19.5855 0.241796L20.7139 1.37018C21.0363 1.69257 21.0363 2.17616 20.7139 2.49856L7.81807 15.8779C7.65687 16.0391 7.49568 16.1197 7.25388 16.1197C7.01208 16.1197 6.85089 16.0391 6.68969 15.8779L0.402993 9.10765L0.241796 8.86585Z" fill="#F5BA20"/>
</svg>
