<svg width="13" height="16" viewBox="0 0 13 16" fill="none" xmlns="http://www.w3.org/2000/svg">
<path fill-rule="evenodd" clip-rule="evenodd" d="M6.7781 15.5424C8.30894 14.2992 12.4284 10.551 12.4284 6.2142C12.4284 2.78219 9.6462 0 6.2142 0C2.78219 0 0 2.78219 0 6.2142C0 10.551 4.11945 14.2992 5.6503 15.5424C5.98199 15.8118 6.44641 15.8118 6.7781 15.5424ZM6.2142 8.87743C7.68506 8.87743 8.87743 7.68506 8.87743 6.2142C8.87743 4.74334 7.68506 3.55097 6.2142 3.55097C4.74334 3.55097 3.55097 4.74334 3.55097 6.2142C3.55097 7.68506 4.74334 8.87743 6.2142 8.87743Z" fill="#F5BA20"/>
</svg>
