<svg width="53" height="52" viewBox="0 0 53 52" fill="none" xmlns="http://www.w3.org/2000/svg">
<path d="M51.9113 12.3237C51.7323 11.6581 51.2956 11.0906 50.6981 10.7466C50.1002 10.4009 49.3893 10.3074 48.7224 10.4864C48.0563 10.6658 47.4889 11.1021 47.1448 11.6996L46.7115 12.4536C46.2998 12.2171 45.7738 12.3563 45.533 12.7659L43.3317 16.5181L42.5777 16.0848C42.3779 15.9693 42.1401 15.938 41.9175 15.9981C41.6945 16.0586 41.505 16.205 41.3903 16.4056C41.1554 16.8198 41.2984 17.3462 41.711 17.5841L42.4651 18.0174L35.0987 30.7829L33.2787 35.645L32.4121 37.2653C31.9047 38.148 31.9589 39.2453 32.5509 40.0734L30.6009 42.4651L30.055 41.0962C29.8088 40.486 29.2388 40.0679 28.5833 40.0167C27.9274 39.9651 27.299 40.2892 26.9609 40.8533L26.649 41.3818L26.3545 37.9153C26.2868 37.0952 25.6516 36.4359 24.8349 36.3369C24.0178 36.2383 23.2443 36.7279 22.9832 37.5082L20.8513 43.9039C20.7023 44.3562 20.9461 44.8437 21.3972 44.996C21.4818 45.0354 21.5728 45.0591 21.6659 45.065C22.0383 45.0663 22.37 44.8289 22.4893 44.476L24.6123 38.0803L24.9158 41.5985C24.9784 42.3492 25.5179 42.9733 26.2517 43.1434C26.9854 43.3135 27.7446 42.9902 28.1309 42.3441L28.4517 41.8151L28.9891 43.176C29.2172 43.7494 29.733 44.1586 30.3436 44.2496C30.9543 44.3406 31.567 44.0998 31.9529 43.6178L33.9723 41.0615C34.1957 41.1199 34.4259 41.1491 34.6569 41.1482C35.5858 41.1554 36.4482 40.6662 36.9187 39.8652L37.7854 38.418L41.0873 34.4056L48.5315 21.4839L49.2856 21.9172C49.4866 22.0323 49.633 22.2223 49.6927 22.4462C49.7528 22.6683 49.7215 22.9053 49.6064 23.1046L46.1398 29.1106C46.0091 29.3077 45.9646 29.5498 46.0171 29.7808C46.0696 30.0115 46.2139 30.2108 46.417 30.3322C46.6167 30.4482 46.8546 30.4795 47.0771 30.4194C47.3001 30.3589 47.4897 30.2125 47.6044 30.0119L51.0709 24.006C51.4167 23.408 51.5102 22.6971 51.3308 22.0302C51.1513 21.3642 50.7151 20.7967 50.1176 20.4527L49.3635 20.0194L51.5301 16.2668C51.7666 15.855 51.6274 15.3295 51.2182 15.0883L51.6515 14.3342C52.0065 13.7269 52.1005 13.0016 51.9113 12.3237ZM48.6441 12.5662C48.7588 12.3656 48.9492 12.2188 49.1731 12.1591C49.3956 12.1041 49.6309 12.135 49.8315 12.2459C50.0325 12.3606 50.1789 12.551 50.239 12.7744C50.294 12.997 50.2631 13.2323 50.1523 13.4328L49.7189 14.1869L48.2108 13.3203L48.6441 12.5662ZM36.832 36.763L36.3987 36.5116L35.1161 35.766L36.3466 32.473L39.0764 34.0501L36.832 36.763ZM34.2321 39.2673C33.866 39.0121 33.7535 38.5212 33.9723 38.1319L34.4056 37.3783L35.9133 38.2449L35.48 38.9901C35.3585 39.2008 35.1546 39.3506 34.9172 39.4035C34.6798 39.456 34.4314 39.4069 34.2321 39.2673ZM40.0645 32.6291L37.066 30.8959L43.9991 18.884L46.9976 20.6173L40.0645 32.6291ZM47.8642 19.118L44.8657 17.3848L46.599 14.3862L49.5975 16.1195L47.8642 19.118Z" fill="white"/>
<path d="M13.6753 38.8339L10.6078 41.8933L8.77046 40.056C8.43235 39.72 7.88647 39.72 7.54837 40.056C7.38418 40.2189 7.29193 40.4402 7.29193 40.6712C7.29193 40.9023 7.38418 41.124 7.54837 41.2865L9.38573 43.1239C9.71072 43.4463 10.15 43.627 10.6078 43.6266C11.0682 43.6291 11.5113 43.4484 11.8384 43.1239L14.8974 40.056C15.1919 39.7119 15.172 39.1995 14.8521 38.8796C14.5318 38.5592 14.0194 38.5393 13.6753 38.8339Z" fill="white"/>
<path d="M3.46655 41.1652C3.46655 45.2339 6.76467 48.5316 10.8329 48.5316C14.9012 48.5316 18.1993 45.2339 18.1993 41.1652C18.1993 40.6866 17.8113 40.2986 17.3327 40.2986C16.8541 40.2986 16.4661 40.6866 16.4661 41.1652C16.4661 44.2763 13.944 46.7984 10.8329 46.7984C7.72186 46.7984 5.19982 44.2763 5.19982 41.1652C5.19982 38.0541 7.72186 35.5321 10.8329 35.5321C12.0525 35.5287 13.2395 35.9244 14.2127 36.659C14.5957 36.9463 15.139 36.8684 15.4259 36.4855C15.7133 36.1025 15.6358 35.5596 15.2529 35.2723C13.0207 33.5983 10.034 33.3291 7.53864 34.5766C5.04283 35.8245 3.46655 38.3753 3.46655 41.1652Z" fill="white"/>
<path d="M31.1988 6.93298C31.6774 6.93298 32.0655 6.54536 32.0655 6.06634C32.0655 5.58775 31.6774 5.19971 31.1988 5.19971H8.66632C8.18772 5.19971 7.79968 5.58775 7.79968 6.06634V9.53288C7.79968 10.0119 8.18772 10.3995 8.66632 10.3995H31.1988C31.6774 10.3995 32.0655 10.0119 32.0655 9.53288C32.0655 9.05428 31.6774 8.66625 31.1988 8.66625H9.53295V6.93298H31.1988Z" fill="white"/>
<path d="M11.2662 12.1328C10.7876 12.1328 10.3996 12.5209 10.3996 12.9994C10.3996 13.4785 10.7876 13.8661 11.2662 13.8661H28.5989C29.0775 13.8661 29.4656 13.4785 29.4656 12.9994C29.4656 12.5209 29.0775 12.1328 28.5989 12.1328H11.2662Z" fill="white"/>
<path d="M33.7987 18.1992H14.7328C14.2542 18.1992 13.8661 18.5873 13.8661 19.0659C13.8661 19.5449 14.2542 19.9325 14.7328 19.9325H33.7987C34.2773 19.9325 34.6654 19.5449 34.6654 19.0659C34.6654 18.5873 34.2773 18.1992 33.7987 18.1992Z" fill="white"/>
<path d="M25.1324 24.2658C25.1324 23.7872 24.7444 23.3992 24.2658 23.3992H6.9331C6.45451 23.3992 6.06647 23.7872 6.06647 24.2658C6.06647 24.7448 6.45451 25.1324 6.9331 25.1324H24.2658C24.7444 25.1324 25.1324 24.7448 25.1324 24.2658Z" fill="white"/>
<path d="M33.7987 23.3992H27.7323C27.2537 23.3992 26.8657 23.7872 26.8657 24.2658C26.8657 24.7448 27.2537 25.1324 27.7323 25.1324H33.7987C34.2773 25.1324 34.6654 24.7448 34.6654 24.2658C34.6654 23.7872 34.2773 23.3992 33.7987 23.3992Z" fill="white"/>
<path d="M15.5994 29.4657C16.078 29.4657 16.4661 29.0781 16.4661 28.5991C16.4661 28.1205 16.078 27.7324 15.5994 27.7324H6.9331C6.45451 27.7324 6.06647 28.1205 6.06647 28.5991C6.06647 29.0781 6.45451 29.4657 6.9331 29.4657H15.5994Z" fill="white"/>
<path d="M19.066 29.4657H25.1324C25.611 29.4657 25.9991 29.0781 25.9991 28.5991C25.9991 28.1205 25.611 27.7324 25.1324 27.7324H19.066C18.5874 27.7324 18.1993 28.1205 18.1993 28.5991C18.1993 29.0781 18.5874 29.4657 19.066 29.4657Z" fill="white"/>
<path d="M38.9986 39.8652C38.52 39.8652 38.1319 40.2532 38.1319 40.7318V49.3982C38.1319 49.8772 37.7439 50.2648 37.2653 50.2648H2.5999C2.12131 50.2648 1.73327 49.8772 1.73327 49.3982V2.5999C1.73327 2.12131 2.12131 1.73327 2.5999 1.73327H37.2653C37.7439 1.73327 38.1319 2.12131 38.1319 2.5999V18.8755C38.1319 19.3541 38.52 19.7422 38.9986 19.7422C39.4772 19.7422 39.8652 19.3541 39.8652 18.8755V2.5999C39.8652 1.16412 38.7011 0 37.2653 0H2.5999C1.16412 0 0 1.16412 0 2.5999V49.3982C0 50.8344 1.16412 51.9981 2.5999 51.9981H37.2653C38.7011 51.9981 39.8652 50.8344 39.8652 49.3982V40.7318C39.8652 40.2532 39.4772 39.8652 38.9986 39.8652Z" fill="white"/>
</svg>
