<svg width="42" height="55" viewBox="0 0 42 55" fill="none" xmlns="http://www.w3.org/2000/svg">
<path d="M41.9631 45.5223C41.8409 38.0476 34.1984 35.8392 28.6181 34.2267C27.967 34.0386 27.3408 33.8576 26.7541 33.6769V30.5933C27.8949 29.8782 28.8946 28.9579 29.701 27.8845H33.1002C34.7637 27.8845 36.1171 26.5311 36.1171 24.8676V21.2157C36.3187 20.7456 36.4308 20.2283 36.4308 19.685V18.5493C36.4308 18.0066 36.3187 17.4895 36.1171 17.0198V15.1358C36.1171 6.78995 29.3274 0 20.9816 0C12.6375 0 5.84914 6.78995 5.84914 15.1359V16.966C5.84914 16.9804 5.85076 16.9942 5.85129 17.0085C5.64655 17.4814 5.53246 18.0022 5.53246 18.5494V19.6851C5.53246 21.8322 7.27786 23.579 9.42319 23.579H10.3109C10.9258 26.5275 12.736 29.0423 15.2092 30.5928V33.6769C14.6223 33.8576 13.9963 34.0385 13.3452 34.2267C7.7648 35.8392 0.122354 38.0477 0.000107363 45.5223C-5.90139e-08 45.5283 0 45.5341 0 45.54V53.9258C0 54.5191 0.481037 55 1.07422 55H4.25908C4.85227 55 5.3333 54.5191 5.3333 53.9258C5.3333 53.3325 4.85227 52.8516 4.25908 52.8516H2.14834V45.5489C2.19356 42.941 3.39154 40.986 5.91822 39.3967C7.58552 38.3479 9.62386 37.6007 11.6331 36.9756L14.2285 42.0324C14.5178 42.5961 15.2585 42.7876 15.7848 42.4325L16.9421 41.6518L17.9357 45.3861L16.2333 52.8515H13.9053C13.3121 52.8515 12.8311 53.3324 12.8311 53.9257C12.8311 54.519 13.3121 54.9999 13.9053 54.9999H40.889C41.4822 54.9999 41.9632 54.519 41.9632 53.9257V45.5399C41.9632 45.5341 41.9632 45.5283 41.9631 45.5223ZM28.0216 36.2906C28.0924 36.311 28.1644 36.3319 28.2357 36.3526L26.3787 39.9742L22.9035 37.6308L25.8481 35.6447C26.5321 35.8599 27.2596 36.0704 28.0216 36.2906ZM20.9824 38.9266L23.1364 40.3792L22.0954 44.2921H19.8679L18.8272 40.3804L20.9824 38.9266ZM20.9822 36.3353L17.3575 33.8911V31.6296C18.492 32.0309 19.7113 32.251 20.9815 32.251C22.2516 32.251 23.4711 32.0316 24.6055 31.6304V33.8911L20.9822 36.3353ZM29.7332 15.3324C29.7185 15.323 29.7039 15.3137 29.6892 15.3043C27.485 13.9012 25.5812 12.6894 22.5983 13.5428C22.5706 13.5508 22.5431 13.5598 22.5161 13.5699C21.8837 13.8074 21.3087 14.0288 20.7525 14.2429C17.3555 15.5506 15.5007 16.2647 12.2299 16.1727V15.3125C12.2299 10.4867 16.1559 6.5606 20.9815 6.5606C25.8071 6.5606 29.7331 10.4867 29.7331 15.3125V15.3324H29.7332ZM33.9686 24.8676C33.9686 25.3465 33.5791 25.736 33.1002 25.736H30.9595C31.2618 25.0508 31.496 24.329 31.6524 23.5789H32.5401C33.0445 23.5789 33.5261 23.4813 33.9688 23.3057V24.8676H33.9686ZM34.2823 19.685C34.2823 20.6474 33.5008 21.4304 32.54 21.4304H31.8807C31.8809 21.4038 31.8818 16.8069 31.8818 16.8069H32.5401C33.5008 16.8069 34.2824 17.5885 34.2824 18.5493V19.685H34.2823ZM9.42319 21.4305C8.46251 21.4305 7.68091 20.6475 7.68091 19.6851V18.5494C7.68091 17.5886 8.46241 16.807 9.42319 16.807H10.0816C10.0816 16.807 10.0824 21.4039 10.0827 21.4305H9.42319ZM10.1017 14.6584H9.42308C8.92088 14.6584 8.44124 14.7551 8.00017 14.9291C8.11114 7.86288 13.8913 2.14845 20.9816 2.14845C28.074 2.14845 33.8557 7.86353 33.966 14.9303C33.5241 14.7555 33.0433 14.6584 32.54 14.6584H31.8615C31.522 8.95128 26.7722 4.41216 20.9816 4.41216C15.1909 4.41216 10.4411 8.95139 10.1017 14.6584ZM12.2946 22.3957C12.2945 22.3946 12.2943 22.3936 12.2942 22.3925C12.2534 22.0506 12.23 21.7034 12.23 21.3507V18.3211C15.9053 18.4107 18.0976 17.5672 21.5243 16.2481C22.064 16.0403 22.6218 15.8256 23.2295 15.5971C25.2587 15.0306 26.4263 15.7741 28.5354 17.1168C28.9014 17.3498 29.3029 17.6051 29.7332 17.8673V21.3507C29.7332 22.9482 29.3009 24.4457 28.5504 25.7361H20.9816C20.3884 25.7361 19.9074 26.2171 19.9074 26.8104C19.9074 27.4036 20.3884 27.8846 20.9816 27.8846H26.7957C25.2486 29.2629 23.2117 30.1026 20.9816 30.1026C16.5097 30.1025 12.8129 26.7303 12.2946 22.3957ZM15.5871 39.9743L13.728 36.3524C13.7991 36.3318 13.8709 36.311 13.9416 36.2906C14.7036 36.0704 15.4311 35.8598 16.1154 35.6445L19.0611 37.631L15.5871 39.9743ZM18.437 52.8516L19.8989 46.4406H22.0646L23.5288 52.8516H18.437ZM39.8148 52.8516H25.7326L24.0276 45.386L25.0216 41.6503L26.1816 42.4326C26.7082 42.7876 27.4489 42.5961 27.738 42.0321L30.3306 36.9758C32.3397 37.6009 34.3779 38.348 36.0451 39.3967C38.5717 40.9859 39.7698 42.941 39.815 45.5489V52.8516H39.8148Z" fill="white"/>
<path d="M35.5726 47.4802H30.1589C29.5657 47.4802 29.0847 47.9612 29.0847 48.5544C29.0847 49.1477 29.5657 49.6287 30.1589 49.6287H35.5726C36.1658 49.6287 36.6469 49.1477 36.6469 48.5544C36.6469 47.9612 36.1659 47.4802 35.5726 47.4802Z" fill="white"/>
<path d="M9.08228 52.8516C8.48909 52.8516 8.00806 53.3325 8.00806 53.9258C8.00806 54.5191 8.48909 55 9.08228 55H9.08528C9.67847 55 10.1579 54.5191 10.1579 53.9258C10.1579 53.3325 9.67546 52.8516 9.08228 52.8516Z" fill="white"/>
</svg>
