<svg width="50" height="52" viewBox="0 0 50 52" fill="none" xmlns="http://www.w3.org/2000/svg">
<path d="M43.2585 39.1711H39.6085V33.9132C39.6085 33.3569 39.1574 32.9058 38.6011 32.9058C38.0448 32.9058 37.5936 33.3569 37.5936 33.9132V40.1785C37.5936 40.7348 38.0448 41.1859 38.6011 41.1859H43.2585C43.8148 41.1859 44.2659 40.7348 44.2659 40.1785C44.2659 39.6222 43.8149 39.1711 43.2585 39.1711Z" fill="white"/>
<path d="M44.2545 30.2828V7.76961C44.2545 6.39688 43.1365 5.28005 41.7622 5.28005H38.7748V3.04637C38.7747 1.36658 37.4069 0 35.7256 0C34.0458 0 32.6792 1.36658 32.6792 3.04637V5.28005H25.1737V3.04637C25.1737 1.36658 23.807 0 22.1272 0C20.4459 0 19.078 1.36658 19.078 3.04637V5.28005H11.5752V3.04637C11.5753 1.36658 10.2075 0 8.52619 0C6.8464 0 5.47982 1.36658 5.47982 3.04637V5.28005H2.48956C1.11684 5.28005 0 6.39688 0 7.76961V45.1273C0 46.5 1.11684 47.6168 2.48956 47.6168H29.9698C32.0621 50.0417 35.1546 51.5805 38.6011 51.5805C44.8866 51.5805 50 46.4656 50 40.1785C50 35.9489 47.6844 32.2501 44.2545 30.2828ZM34.6941 3.04637C34.6941 2.47757 35.1569 2.01486 35.7256 2.01486C36.2959 2.01486 36.7599 2.47768 36.7599 3.04637V7.68388C36.7599 8.243 36.2863 8.71538 35.7256 8.71538C35.1568 8.71538 34.6941 8.25257 34.6941 7.68388V3.04637ZM21.093 3.04637C21.093 2.47757 21.5569 2.01486 22.1273 2.01486C22.6961 2.01486 23.1588 2.47768 23.1588 3.04637V7.68388C23.1588 8.25267 22.696 8.71538 22.1273 8.71538C21.5667 8.71538 21.093 8.243 21.093 7.68388V3.04637ZM7.49468 3.04637C7.49468 2.47768 7.95739 2.01486 8.52619 2.01486C9.09649 2.01486 9.56052 2.47768 9.56052 3.04637V7.68388C9.56052 8.243 9.08692 8.71538 8.52619 8.71538C7.95739 8.71538 7.49478 8.25257 7.49478 7.68388V3.04637H7.49468ZM2.48956 45.602C2.23227 45.602 2.01486 45.3846 2.01486 45.1273V14.8425H17.604C18.1604 14.8425 18.6115 14.3914 18.6115 13.835C18.6115 13.2787 18.1604 12.8276 17.604 12.8276H2.01486V7.76961C2.01486 7.51231 2.23227 7.29491 2.48956 7.29491H5.47992V7.68388C5.47992 9.36367 6.8464 10.7302 8.52619 10.7302C10.2075 10.7302 11.5754 9.36367 11.5754 7.68388V7.29491H19.0782V7.68388C19.0782 9.36367 20.446 10.7302 22.1274 10.7302C23.8072 10.7302 25.1738 9.36367 25.1738 7.68388V7.29491H32.6793V7.68388C32.6793 9.36367 34.0459 10.7302 35.7257 10.7302C37.407 10.7302 38.7749 9.36367 38.7749 7.68388V7.29491H41.7623C42.0211 7.29491 42.2398 7.51231 42.2398 7.76961V12.8276H26.6506C26.0943 12.8276 25.6431 13.2787 25.6431 13.835C25.6431 14.3914 26.0943 14.8425 26.6506 14.8425H42.2397V29.3748C41.0965 28.9887 39.8728 28.7793 38.6011 28.7793C37.2185 28.7793 35.8928 29.0268 34.6656 29.4794V20.0946C34.6656 18.7644 33.5834 17.6822 32.2533 17.6822H11.9985C10.6684 17.6822 9.58621 18.7644 9.58621 20.0946V40.3498C9.58621 41.68 10.6684 42.7622 11.9985 42.7622H27.4948C27.7283 43.7662 28.0967 44.7185 28.5766 45.602H2.48956ZM27.2136 40.7473H11.9985C11.783 40.7473 11.6011 40.5652 11.6011 40.3498V20.0946C11.6011 19.8791 11.7831 19.6971 11.9985 19.6971H17.3419V27.3395C17.3419 27.7046 17.5396 28.0412 17.8584 28.2191C18.1771 28.3971 18.5674 28.3886 18.8782 28.1968L22.1272 26.1927L25.3763 28.1968C25.5382 28.2966 25.7216 28.3468 25.9052 28.3468C26.0742 28.3468 26.2433 28.3043 26.3961 28.219C26.715 28.041 26.9126 27.7045 26.9126 27.3394V19.697H32.2532C32.4687 19.697 32.6506 19.8791 32.6506 20.0945V30.4586C29.3832 32.4654 27.1994 36.0716 27.1994 40.1785C27.1994 40.3693 27.2044 40.5589 27.2136 40.7473ZM19.3568 25.5343V19.6971H24.8977V25.5344L22.6561 24.1517C22.3318 23.9517 21.9226 23.9517 21.5983 24.1517L19.3568 25.5343ZM38.6011 49.5656C33.4252 49.5656 29.2143 45.3545 29.2143 40.1785C29.2143 35.0039 33.4252 30.7941 38.6011 30.7941C43.7755 30.7941 47.9851 35.0039 47.9851 40.1785C47.9851 45.3545 43.7755 49.5656 38.6011 49.5656Z" fill="white"/>
<path d="M23.0096 36.0242H15.3909C14.8346 36.0242 14.3835 36.4753 14.3835 37.0316C14.3835 37.5879 14.8346 38.039 15.3909 38.039H23.0096C23.5659 38.039 24.017 37.5879 24.017 37.0316C24.017 36.4753 23.566 36.0242 23.0096 36.0242Z" fill="white"/>
<path d="M23.0096 32.0576H20.2254C19.6691 32.0576 19.218 32.5087 19.218 33.065C19.218 33.6214 19.6691 34.0725 20.2254 34.0725H23.0096C23.5659 34.0725 24.0171 33.6214 24.0171 33.065C24.0171 32.5087 23.566 32.0576 23.0096 32.0576Z" fill="white"/>
<path d="M15.3909 34.0725H16.1963C16.7526 34.0725 17.2037 33.6214 17.2037 33.065C17.2037 32.5087 16.7526 32.0576 16.1963 32.0576H15.3909C14.8346 32.0576 14.3835 32.5087 14.3835 33.065C14.3835 33.6214 14.8346 34.0725 15.3909 34.0725Z" fill="white"/>
<path d="M22.1272 14.8425H22.13C22.6863 14.8425 23.1361 14.3914 23.1361 13.8351C23.1361 13.2788 22.6835 12.8276 22.1271 12.8276C21.5707 12.8276 21.1197 13.2788 21.1197 13.8351C21.1197 14.3914 21.5709 14.8425 22.1272 14.8425Z" fill="white"/>
</svg>
