<svg width="18" height="17" viewBox="0 0 18 17" fill="none" xmlns="http://www.w3.org/2000/svg">
<path d="M0.315255 8.18007L4.42788 9.71503L6.01972 14.8344C6.12157 15.1622 6.52251 15.2834 6.78863 15.0659L9.08108 13.197C9.32137 13.0012 9.66365 12.9915 9.91477 13.1738L14.0495 16.1757C14.3342 16.3826 14.7375 16.2266 14.8089 15.8826L17.8379 1.3129C17.9158 0.937136 17.5466 0.623659 17.1888 0.762043L0.310436 7.2732C-0.106086 7.43383 -0.102457 8.02354 0.315255 8.18007ZM5.76318 8.89793L13.8008 3.94756C13.9452 3.85886 14.0939 4.05418 13.9698 4.16924L7.33646 10.3353C7.1033 10.5523 6.95289 10.8428 6.9103 11.158L6.68433 12.8326C6.65441 13.0561 6.34034 13.0783 6.27864 12.8619L5.4096 9.80838C5.31007 9.4601 5.45512 9.08808 5.76318 8.89793Z" fill="#3BADEE"/>
</svg>
