<svg width="62" height="49" viewBox="0 0 62 49" fill="none" xmlns="http://www.w3.org/2000/svg">
<path d="M61.611 16.3272L59.9961 13.5299C59.6617 12.9508 58.9216 12.7523 58.342 13.0867C57.7628 13.421 57.5643 14.1616 57.8988 14.7408L59.5138 17.5381C59.599 17.6856 59.58 17.826 59.5611 17.8966C59.5422 17.9672 59.4883 18.0985 59.3408 18.1836L55.0702 20.6492C54.8443 20.7793 54.5549 20.7017 54.4246 20.4762L45.8332 5.59592C45.7029 5.37021 45.7806 5.08056 46.0063 4.95015L50.2768 2.48463C50.5025 2.35458 50.7924 2.43184 50.9225 2.65755L52.4497 5.30276C52.7842 5.88206 53.5248 6.08052 54.1038 5.74595C54.683 5.41162 54.8815 4.67103 54.547 4.09186L53.0198 1.44665C52.222 0.0646445 50.4485 -0.410876 49.066 0.387229L44.7954 2.85287C44.1466 3.22752 43.6977 3.81711 43.4864 4.4802H31.3798C29.6801 4.4802 28.082 5.14207 26.88 6.34402L25.6395 7.58446C24.5519 7.32521 23.4376 7.19189 22.3171 7.19189H18.5579C18.3701 6.46644 17.9036 5.81352 17.2049 5.41005L12.9343 2.94441C12.2646 2.55777 11.4843 2.45521 10.7378 2.65525C9.99105 2.85529 9.36683 3.33432 8.98031 4.00383L0.389085 18.8842C0.00256552 19.5537 -0.10024 20.3338 0.0998009 21.0807C0.299842 21.8276 0.778874 22.4517 1.4485 22.8382L5.71911 25.3038C6.1738 25.5663 6.67064 25.6911 7.16141 25.6911C7.34026 25.6911 7.51815 25.6738 7.693 25.6413L11.1884 29.1368C11.1349 29.4116 11.1071 29.6933 11.1071 29.9796C11.1071 31.1432 11.5603 32.2372 12.3831 33.0599C13.1709 33.8476 14.1878 34.2693 15.2213 34.3264C15.2054 34.4782 15.1968 34.6315 15.1968 34.7863C15.1968 35.9499 15.65 37.0439 16.4728 37.8666C17.2956 38.6894 18.3895 39.1425 19.5531 39.1425C19.5847 39.1425 19.6159 39.1409 19.6474 39.1402C19.6467 39.1717 19.6451 39.2029 19.6451 39.2345C19.6451 40.3982 20.0982 41.4921 20.921 42.3148C21.7438 43.1376 22.8377 43.5907 24.0013 43.5907C24.0329 43.5907 24.0641 43.5892 24.0956 43.5884C24.0949 43.6199 24.0933 43.6512 24.0933 43.6828C24.0933 44.8463 24.5464 45.9404 25.3693 46.7631C26.1921 47.5857 27.286 48.039 28.4495 48.039C29.6131 48.039 30.7071 47.5859 31.5298 46.7631L33.2525 45.0405C33.7575 44.5355 34.1111 43.9358 34.3159 43.2984C35.0812 43.8632 35.9906 44.1457 36.9003 44.1456C38.0157 44.1454 39.1315 43.7209 39.9806 42.8717C40.4887 42.3636 40.8552 41.752 41.0618 41.0847C41.7628 41.543 42.5816 41.7895 43.4387 41.7895C44.6022 41.7895 45.6963 41.3364 46.519 40.5136C47.1304 39.9021 47.5372 39.1409 47.7061 38.3127C48.1435 38.4575 48.6056 38.5339 49.0797 38.5339C50.2432 38.5339 51.3374 38.0808 52.1601 37.2578C53.8585 35.5593 53.8585 32.7957 52.1601 31.0971L49.3338 28.2709L54.4926 23.1121C54.6072 23.1258 54.7226 23.1335 54.8385 23.1335C55.3293 23.1335 55.8262 23.0088 56.2808 22.7464L60.5514 20.2809C61.2209 19.8942 61.6999 19.2701 61.9001 18.5233C62.1002 17.7764 61.9976 16.9967 61.611 16.3272ZM2.65928 20.7409C2.5118 20.6558 2.45803 20.5246 2.43914 20.4539C2.42025 20.3833 2.40124 20.2429 2.48649 20.0953L11.0777 5.21473C11.1628 5.06724 11.2941 5.01348 11.3647 4.99459C11.3948 4.98659 11.4377 4.97848 11.4883 4.97848C11.5565 4.97848 11.6387 4.99313 11.7232 5.04181L15.9938 7.50745C16.2194 7.63774 16.2972 7.92739 16.1669 8.1531L7.57566 23.0335C7.44525 23.2591 7.15584 23.3368 6.93001 23.2065L2.65928 20.7409ZM13.5289 29.9795C13.5289 29.4627 13.7302 28.977 14.0956 28.6115L15.1406 27.5665C15.5177 27.1893 16.0131 27.0008 16.5086 27.0008C17.0039 27.0008 17.4994 27.1894 17.8764 27.5665C18.2419 27.932 18.4431 28.4177 18.4431 28.9343C18.4431 29.451 18.2419 29.9369 17.8764 30.3022L16.8314 31.3472C16.0772 32.1016 14.8499 32.1015 14.0956 31.3472C13.7302 30.982 13.5289 30.4962 13.5289 29.9795ZM19.5532 36.7207C19.0364 36.7207 18.5507 36.5194 18.1853 36.1541C17.8199 35.7888 17.6186 35.303 17.6186 34.7863C17.6186 34.2696 17.8199 33.7838 18.1853 33.4184L19.9078 31.6959C20.2849 31.3189 20.7803 31.1303 21.2757 31.1303C21.7712 31.1303 22.2666 31.3189 22.6436 31.6959C23.0091 32.0613 23.2103 32.5471 23.2103 33.0638C23.2103 33.5805 23.0091 34.0663 22.6436 34.4316L20.9211 36.1541C20.5557 36.5196 20.0699 36.7207 19.5532 36.7207ZM24.0014 41.1691C23.4846 41.1691 22.9989 40.9678 22.6336 40.6025C22.2681 40.2371 22.0669 39.7513 22.0669 39.2346C22.0669 38.7179 22.2681 38.2321 22.6336 37.8667L24.3561 36.1442C24.7332 35.7671 25.2285 35.5786 25.7239 35.5786C26.2193 35.5786 26.7148 35.7671 27.0919 36.1443C27.4573 36.5096 27.6586 36.9954 27.6586 37.5121C27.6586 38.0288 27.4573 38.5146 27.0919 38.88L25.3694 40.6025C25.004 40.9678 24.5182 41.1691 24.0014 41.1691ZM31.5401 43.3282L29.8175 45.0508C29.4522 45.4162 28.9665 45.6174 28.4497 45.6174C27.9328 45.6174 27.4472 45.4162 27.0818 45.0508C26.7164 44.6854 26.5151 44.1997 26.5151 43.683C26.5151 43.1662 26.7164 42.6805 27.0818 42.315L28.8043 40.5925C29.1814 40.2153 29.6768 40.0268 30.1723 40.0268C30.6676 40.0268 31.163 40.2155 31.5401 40.5924C32.2944 41.3466 32.2944 42.5739 31.5401 43.3282ZM50.4479 35.5456C50.0824 35.9111 49.5967 36.1123 49.0799 36.1123C48.5632 36.1123 48.0775 35.9111 47.7121 35.5456L36.154 23.9876C35.6812 23.5148 34.9147 23.5147 34.4414 23.9876C33.9686 24.4604 33.9686 25.2272 34.4414 25.7L44.8068 36.0655C45.1722 36.4308 45.3735 36.9166 45.3735 37.4333C45.3735 37.95 45.1722 38.4358 44.8068 38.8013C44.4414 39.1666 43.9557 39.3678 43.4389 39.3678C42.9221 39.3678 42.4364 39.1666 42.0711 38.8013L29.6156 26.3458C29.1428 25.8731 28.376 25.8731 27.9031 26.3458C27.4302 26.8187 27.4302 27.5854 27.9031 28.0583L38.2684 38.4237C38.6338 38.789 38.8351 39.2748 38.8351 39.7915C38.8351 40.3082 38.6338 40.794 38.2684 41.1594C37.5142 41.9136 36.287 41.9139 35.5326 41.1594L33.2529 38.8797C33.2498 38.8766 33.2463 38.8739 33.2431 38.8709C32.371 38.004 31.2207 37.5839 30.0781 37.6085C30.0788 37.5764 30.0804 37.5445 30.0804 37.5121C30.0804 36.3486 29.6273 35.2545 28.8045 34.4317C27.9313 33.5585 26.7766 33.1356 25.6297 33.1601C25.6304 33.1281 25.632 33.0961 25.632 33.0639C25.632 31.9002 25.1789 30.8063 24.3561 29.9835C23.4012 29.0286 22.1095 28.6107 20.8599 28.7295C20.8098 27.6429 20.3631 26.6284 19.5889 25.8542C17.8904 24.1556 15.1266 24.156 13.4281 25.8542L12.3831 26.8992C12.3819 26.9004 12.3806 26.9017 12.3794 26.9029L9.6905 24.214L18.1199 9.61369H22.3169C22.7282 9.61369 23.1383 9.63549 23.5461 9.67787L22.1619 11.0621C21.3391 11.8849 20.886 12.9789 20.886 14.1425C20.886 15.3061 21.3391 16.4001 22.1619 17.2229C23.0113 18.0721 24.1269 18.4967 25.2422 18.4967C26.3578 18.4967 27.4734 18.0722 28.3226 17.2229L31.5916 13.9539L50.4477 32.81C51.202 33.5641 51.202 34.7915 50.4479 35.5456ZM38.8138 17.7508C40.5759 16.4755 41.656 14.4175 41.656 12.1815C41.656 11.5127 41.1138 10.9706 40.4451 10.9706C39.7764 10.9706 39.2342 11.5127 39.2342 12.1815C39.2342 13.7633 38.3987 15.2061 37.0656 16.0028L32.4535 11.3907C31.9805 10.9178 31.2151 10.9055 30.7421 11.3783L26.6102 15.5103C25.8559 16.2646 24.6287 16.2644 23.8744 15.5103C23.5089 15.145 23.3077 14.6592 23.3077 14.1425C23.3077 13.6258 23.5089 13.14 23.8744 12.7745L28.5924 8.05647C29.3369 7.31201 30.3268 6.902 31.3798 6.902H43.7909L52.3272 21.6873C52.3474 21.7223 52.3694 21.7556 52.3909 21.7894L47.6216 26.5587L38.8138 17.7508Z" fill="white"/>
<path d="M56.223 10.6278C56.5415 10.6278 56.8527 10.4982 57.0792 10.273C57.3043 10.0466 57.434 9.73535 57.434 9.41687C57.434 9.09718 57.3044 8.78597 57.0792 8.55953C56.8527 8.33429 56.5415 8.20593 56.223 8.20593C55.9033 8.20593 55.5921 8.33429 55.3669 8.55953C55.1404 8.78597 55.0121 9.09718 55.0121 9.41687C55.0121 9.73535 55.1404 10.0466 55.3669 10.273C55.5921 10.4984 55.9033 10.6278 56.223 10.6278Z" fill="white"/>
</svg>
